<svg width="188" height="48" viewBox="0 0 188 48" fill="none" xmlns="http://www.w3.org/2000/svg">
<path d="M85.4979 35.1489C84.9024 36.0174 84.22 36.7494 83.4507 37.345C82.6814 37.9654 81.7757 38.4989 80.7335 38.9456C79.3439 36.2656 77.9418 33.9702 76.5274 32.0594C75.1377 30.1239 73.4627 28.1759 71.5024 26.2156C71.2294 26.4141 70.9937 26.5878 70.7951 26.7367C70.5966 26.8856 70.3981 27.022 70.1996 27.1461C70.2492 28.908 70.3361 30.5954 70.4601 32.2083C70.5842 33.8213 70.7579 35.4715 70.9813 37.1589C70.485 37.3078 69.7405 37.4319 68.7479 37.5311C67.7801 37.6552 66.8868 37.7172 66.0679 37.7172C65.5468 34.4913 65.1622 31.3522 64.914 28.3C64.6659 25.223 64.5418 21.9846 64.5418 18.585C64.5418 17.1954 64.5666 15.7685 64.6163 14.3044C64.6907 12.8156 64.7776 11.277 64.8768 9.68889C65.4227 9.41593 66.0183 9.205 66.6635 9.05611C67.3087 8.88241 67.9663 8.79555 68.6363 8.79555C69.1326 8.79555 69.604 8.83278 70.0507 8.90722C70.5222 8.95685 70.9689 9.0437 71.3907 9.16778C71.0185 11.277 70.7331 13.4483 70.5346 15.6817C70.3361 17.915 70.212 20.198 70.1624 22.5306C71.9739 20.7439 73.5124 18.8704 74.7779 16.91C76.0683 14.9496 77.4579 12.3069 78.9468 8.98167C79.7657 9.25463 80.535 9.66407 81.2546 10.21C81.999 10.7311 82.7187 11.4011 83.4135 12.22C82.1727 14.5278 80.9072 16.5502 79.6168 18.2872C78.3264 19.9994 76.8996 21.5876 75.3363 23.0517C77.3711 24.7887 79.1329 26.563 80.6218 28.3744C82.1355 30.1859 83.7609 32.4441 85.4979 35.1489ZM83.8985 26.2156C83.8985 22.8159 84.7919 20.0491 86.5785 17.915C88.39 15.7561 90.7226 14.6767 93.5763 14.6767C95.7848 14.6767 97.5095 15.3839 98.7502 16.7983C100.016 18.188 100.649 20.1235 100.649 22.605C100.649 26.228 99.78 29.2678 98.043 31.7244C96.3059 34.1563 93.9609 35.3722 91.008 35.3722C88.7746 35.3722 87.0252 34.5409 85.7596 32.8783C84.5189 31.2157 83.8985 28.9948 83.8985 26.2156ZM95.0652 24.4661C95.0652 22.2824 94.8419 20.6694 94.3952 19.6272C93.9485 18.585 93.2661 18.0639 92.348 18.0639C91.5043 18.0639 90.7846 18.7711 90.1891 20.1856C89.6183 21.5752 89.333 23.3246 89.333 25.4339C89.333 27.295 89.5811 28.8583 90.0774 30.1239C90.5985 31.3894 91.2933 32.0222 92.1619 32.0222C92.9808 32.0222 93.6632 31.2778 94.2091 29.7889C94.7798 28.2752 95.0652 26.5009 95.0652 24.4661ZM118.246 35.9678C117.725 36.1415 117.042 36.278 116.199 36.3772C115.38 36.5013 114.648 36.5633 114.003 36.5633C113.903 35.9926 113.804 35.3474 113.705 34.6278C113.63 33.8833 113.544 33.0644 113.444 32.1711C112.923 33.5111 112.253 34.5037 111.434 35.1489C110.64 35.7941 109.66 36.1167 108.494 36.1167C106.409 36.1167 104.784 35.2854 103.618 33.6228C102.476 31.9354 101.905 29.6276 101.905 26.6994C101.905 23.2254 102.749 20.4461 104.436 18.3617C106.124 16.2772 108.382 15.235 111.211 15.235C111.409 15.235 111.62 15.2474 111.844 15.2722C112.067 15.297 112.278 15.3219 112.476 15.3467C112.452 13.2622 112.427 11.7981 112.402 10.9544C112.402 10.1107 112.402 9.35389 112.402 8.68389C112.849 8.46056 113.444 8.28685 114.189 8.16278C114.958 8.01389 115.727 7.93944 116.496 7.93944C116.869 7.93944 117.241 7.96426 117.613 8.01389C117.985 8.06352 118.358 8.12555 118.73 8.2C118.531 9.88741 118.382 12.5054 118.283 16.0539C118.184 19.6024 118.134 24.5778 118.134 30.98C118.134 31.8485 118.134 32.655 118.134 33.3994C118.159 34.1439 118.196 35 118.246 35.9678ZM107.34 26.0294C107.34 28.0146 107.576 29.5407 108.047 30.6078C108.519 31.6748 109.176 32.2083 110.02 32.2083C110.739 32.2083 111.36 31.7493 111.881 30.8311C112.402 29.8881 112.774 28.5481 112.998 26.8111C112.898 24.95 112.811 23.3867 112.737 22.1211C112.687 20.8556 112.638 19.6644 112.588 18.5478C112.34 18.523 112.141 18.5106 111.993 18.5106C111.869 18.4857 111.732 18.4733 111.583 18.4733C110.293 18.4733 109.263 19.1433 108.494 20.4833C107.724 21.8233 107.34 23.672 107.34 26.0294ZM126.483 22.6422C126.979 22.7911 127.476 22.9028 127.972 22.9772C128.493 23.0517 128.977 23.0889 129.424 23.0889C129.697 23.0889 129.97 23.0765 130.243 23.0517C130.515 23.0269 130.702 23.002 130.801 22.9772C130.975 22.332 131.099 21.7365 131.173 21.1906C131.272 20.6198 131.322 20.1111 131.322 19.6644C131.322 18.92 131.21 18.3741 130.987 18.0267C130.764 17.6793 130.404 17.5056 129.908 17.5056C129.213 17.5056 128.555 17.977 127.935 18.92C127.314 19.8381 126.83 21.0789 126.483 22.6422ZM132.513 28.1883C133.233 28.3124 133.965 28.573 134.709 28.97C135.454 29.367 136.074 29.8137 136.57 30.31C136.099 31.6996 135.057 32.9404 133.444 34.0322C131.831 35.0993 129.994 35.6328 127.935 35.6328C125.577 35.6328 123.741 34.8759 122.426 33.3622C121.111 31.8237 120.453 29.7517 120.453 27.1461C120.453 23.8457 121.433 20.9176 123.394 18.3617C125.379 15.7809 127.687 14.4906 130.317 14.4906C132.153 14.4906 133.605 14.9993 134.672 16.0167C135.764 17.0093 136.31 18.3493 136.31 20.0367C136.31 20.8307 136.223 21.6869 136.049 22.605C135.9 23.5231 135.689 24.3544 135.416 25.0989C134.771 25.3967 133.977 25.62 133.034 25.7689C132.091 25.893 130.925 25.955 129.535 25.955C128.965 25.955 128.381 25.9178 127.786 25.8433C127.215 25.7689 126.632 25.6572 126.036 25.5083C126.012 25.9054 125.987 26.2031 125.962 26.4017C125.962 26.6002 125.962 26.7863 125.962 26.96C125.962 28.6474 126.21 29.975 126.706 30.9428C127.228 31.9106 127.935 32.3944 128.828 32.3944C129.523 32.3944 130.23 31.9602 130.95 31.0917C131.694 30.2231 132.215 29.2554 132.513 28.1883ZM159.947 35.1489C159.351 36.0174 158.669 36.7494 157.9 37.345C157.13 37.9654 156.225 38.4989 155.182 38.9456C153.793 36.2656 152.391 33.9702 150.976 32.0594C149.587 30.1239 147.912 28.1759 145.951 26.2156C145.678 26.4141 145.442 26.5878 145.244 26.7367C145.045 26.8856 144.847 27.022 144.648 27.1461C144.698 28.908 144.785 30.5954 144.909 32.2083C145.033 33.8213 145.207 35.4715 145.43 37.1589C144.934 37.3078 144.189 37.4319 143.197 37.5311C142.229 37.6552 141.336 37.7172 140.517 37.7172C139.996 34.4913 139.611 31.3522 139.363 28.3C139.115 25.223 138.991 21.9846 138.991 18.585C138.991 17.1954 139.015 15.7685 139.065 14.3044C139.14 12.8156 139.226 11.277 139.326 9.68889C139.872 9.41593 140.467 9.205 141.112 9.05611C141.757 8.88241 142.415 8.79555 143.085 8.79555C143.581 8.79555 144.053 8.83278 144.5 8.90722C144.971 8.95685 145.418 9.0437 145.84 9.16778C145.467 11.277 145.182 13.4483 144.983 15.6817C144.785 17.915 144.661 20.198 144.611 22.5306C146.423 20.7439 147.961 18.8704 149.227 16.91C150.517 14.9496 151.907 12.3069 153.396 8.98167C154.215 9.25463 154.984 9.66407 155.703 10.21C156.448 10.7311 157.167 11.4011 157.862 12.22C156.622 14.5278 155.356 16.5502 154.066 18.2872C152.775 19.9994 151.348 21.5876 149.785 23.0517C151.82 24.7887 153.582 26.563 155.071 28.3744C156.584 30.1859 158.21 32.4441 159.947 35.1489ZM165.825 7.08333C166.421 7.10815 166.967 7.17018 167.463 7.26944C167.959 7.3687 168.369 7.50518 168.691 7.67889C168.468 8.2 168.22 8.90722 167.947 9.80055C167.674 10.6939 167.463 11.5376 167.314 12.3317C166.619 12.4309 165.887 12.5054 165.118 12.555C164.349 12.5798 163.517 12.5798 162.624 12.555C162.5 12.158 162.401 11.7609 162.326 11.3639C162.277 10.9669 162.252 10.5698 162.252 10.1728C162.252 9.72611 162.289 9.29185 162.364 8.87C162.438 8.44815 162.537 8.07592 162.661 7.75333C163.133 7.53 163.617 7.3687 164.113 7.26944C164.634 7.14537 165.205 7.08333 165.825 7.08333ZM161.582 16.3517C162.103 16.0539 162.686 15.8306 163.331 15.6817C164.001 15.508 164.709 15.4211 165.453 15.4211C165.8 15.4211 166.148 15.4459 166.495 15.4956C166.867 15.5204 167.227 15.57 167.575 15.6444C167.054 17.6296 166.632 20.3841 166.309 23.9078C165.987 27.4315 165.825 31.0669 165.825 34.8139C165.428 34.9876 164.932 35.1241 164.336 35.2233C163.766 35.3474 163.17 35.4094 162.55 35.4094C162.277 35.4094 162.029 35.397 161.805 35.3722C161.607 35.3474 161.421 35.3226 161.247 35.2978C160.85 31.8981 160.676 28.5481 160.726 25.2478C160.8 21.9474 161.086 18.982 161.582 16.3517ZM184.225 35.9678C183.704 36.1415 183.022 36.278 182.178 36.3772C181.359 36.5013 180.627 36.5633 179.982 36.5633C179.883 35.9926 179.783 35.3474 179.684 34.6278C179.61 33.8833 179.523 33.0644 179.424 32.1711C178.902 33.5111 178.232 34.5037 177.414 35.1489C176.619 35.7941 175.639 36.1167 174.473 36.1167C172.389 36.1167 170.763 35.2854 169.597 33.6228C168.455 31.9354 167.885 29.6276 167.885 26.6994C167.885 23.2254 168.728 20.4461 170.416 18.3617C172.103 16.2772 174.361 15.235 177.19 15.235C177.389 15.235 177.6 15.2474 177.823 15.2722C178.046 15.297 178.257 15.3219 178.456 15.3467C178.431 13.2622 178.406 11.7981 178.381 10.9544C178.381 10.1107 178.381 9.35389 178.381 8.68389C178.828 8.46056 179.424 8.28685 180.168 8.16278C180.937 8.01389 181.707 7.93944 182.476 7.93944C182.848 7.93944 183.22 7.96426 183.592 8.01389C183.965 8.06352 184.337 8.12555 184.709 8.2C184.511 9.88741 184.362 12.5054 184.262 16.0539C184.163 19.6024 184.114 24.5778 184.114 30.98C184.114 31.8485 184.114 32.655 184.114 33.3994C184.138 34.1439 184.176 35 184.225 35.9678ZM173.319 26.0294C173.319 28.0146 173.555 29.5407 174.026 30.6078C174.498 31.6748 175.155 32.2083 175.999 32.2083C176.719 32.2083 177.339 31.7493 177.86 30.8311C178.381 29.8881 178.754 28.5481 178.977 26.8111C178.878 24.95 178.791 23.3867 178.716 22.1211C178.667 20.8556 178.617 19.6644 178.567 18.5478C178.319 18.523 178.121 18.5106 177.972 18.5106C177.848 18.4857 177.711 18.4733 177.562 18.4733C176.272 18.4733 175.242 19.1433 174.473 20.4833C173.704 21.8233 173.319 23.672 173.319 26.0294Z" fill="#111624"/>
<circle cx="15.8051" cy="23.7309" r="15.8051" fill="#AEB684"/>
<circle cx="41.4355" cy="23.7309" r="16.7357" fill="#FE602F" stroke="white" stroke-width="1.86111"/>
</svg>
